<svg xmlns="http://www.w3.org/2000/svg" xmlns:xlink="http://www.w3.org/1999/xlink" width="1080" zoomAndPan="magnify" viewBox="0 0 810 1439.999935" height="1920" preserveAspectRatio="xMidYMid meet" version="1.0"><defs><clipPath id="bdd325e5a1"><path d="M 0 125 L 238 125 L 238 618 L 0 618 Z M 0 125 " clip-rule="nonzero"/></clipPath><clipPath id="7e783926a0"><path d="M -337.109375 81 L 266.316406 136.808594 L 219 648.375 L -384.421875 592.566406 Z M -337.109375 81 " clip-rule="nonzero"/></clipPath><clipPath id="fb3e67cbb1"><path d="M -337.109375 81 L 266.316406 136.808594 L 219 648.375 L -384.421875 592.566406 Z M -337.109375 81 " clip-rule="nonzero"/></clipPath><clipPath id="b0c8f5f850"><path d="M 591 0 L 810 0 L 810 365 L 591 365 Z M 591 0 " clip-rule="nonzero"/></clipPath><clipPath id="25ab90d0be"><path d="M 827.285156 -247.199219 L 1189.269531 173.507812 L 832.804688 480.214844 L 470.824219 59.507812 Z M 827.285156 -247.199219 " clip-rule="nonzero"/></clipPath><clipPath id="e4066fa382"><path d="M 827.285156 -247.199219 L 1189.269531 173.507812 L 832.804688 480.214844 L 470.824219 59.507812 Z M 827.285156 -247.199219 " clip-rule="nonzero"/></clipPath><clipPath id="67c84ee08e"><path d="M 0 1008 L 294 1008 L 294 1440 L 0 1440 Z M 0 1008 " clip-rule="nonzero"/></clipPath><clipPath id="e12125be17"><path d="M 13.355469 940.058594 L 355.773438 1338.023438 L 18.636719 1628.097656 L -323.777344 1230.132812 Z M 13.355469 940.058594 " clip-rule="nonzero"/></clipPath><clipPath id="c4a4d5d25b"><path d="M 13.355469 940.058594 L 355.773438 1338.023438 L 18.636719 1628.097656 L -323.777344 1230.132812 Z M 13.355469 940.058594 " clip-rule="nonzero"/></clipPath><clipPath id="0f9ab4cb08"><path d="M 579 699 L 810 699 L 810 1278 L 579 1278 Z M 579 699 " clip-rule="nonzero"/></clipPath><clipPath id="b23810ce69"><path d="M 1225.804688 931.273438 L 807.375 1349.703125 L 452.582031 994.910156 L 871.015625 576.480469 Z M 1225.804688 931.273438 " clip-rule="nonzero"/></clipPath><clipPath id="fae29071ce"><path d="M 1225.804688 931.273438 L 807.375 1349.703125 L 452.582031 994.910156 L 871.015625 576.480469 Z M 1225.804688 931.273438 " clip-rule="nonzero"/></clipPath></defs><rect x="-81" width="972" fill="#ffffff" y="-143.999994" height="1727.999922" fill-opacity="1"/><rect x="-81" width="972" fill="#ffffff" y="-143.999994" height="1727.999922" fill-opacity="1"/><g clip-path="url(#bdd325e5a1)"><g clip-path="url(#7e783926a0)"><g clip-path="url(#fb3e67cbb1)"><path fill="#00bf63" d="M -329.488281 185.804688 C -349.046875 213.625 -345.328125 251.78125 -338.984375 285.464844 C -332.648438 319.15625 -324.8125 355.363281 -338.304688 386.84375 C -342.382812 396.359375 -348.359375 405.222656 -350.054688 415.480469 C -353.292969 435.066406 -339.445312 454 -322.414062 462.671875 C -305.386719 471.339844 -285.78125 472.203125 -266.832031 473.5625 C -247.886719 474.925781 -228.132812 477.246094 -212.363281 488.1875 C -180.363281 510.398438 -176.324219 558.726562 -150 587.949219 C -130.011719 610.144531 -99.050781 618.605469 -69.777344 617.242188 C -40.496094 615.886719 -12.238281 605.878906 15.554688 595.96875 C 56.722656 581.292969 98.207031 566.464844 135.800781 543.519531 C 170.757812 522.183594 202.527344 493.15625 221.253906 455.671875 C 239.988281 418.191406 244.148438 371.523438 226.054688 334.019531 C 211.207031 303.253906 181.859375 276.917969 184.097656 242.414062 C 185.414062 222.136719 198.007812 203.308594 196.320312 183.089844 C 192.464844 136.902344 131.117188 124.339844 96.042969 126.152344 C 54.074219 128.320312 17.226562 149.507812 -14.488281 177.148438 C -35.003906 195.03125 -54.960938 217.933594 -83.378906 219.292969 C -125.726562 221.3125 -165.394531 185.496094 -202.390625 168.996094 C -242.257812 151.207031 -299.765625 143.515625 -329.488281 185.804688 " fill-opacity="1" fill-rule="nonzero"/></g></g></g><g clip-path="url(#b0c8f5f850)"><g clip-path="url(#25ab90d0be)"><g clip-path="url(#e4066fa382)"><path fill="#00bf63" d="M 765.640625 -173.324219 C 735.058594 -167.441406 713.238281 -139.949219 695.984375 -113.730469 C 678.726562 -87.511719 660.855469 -58.675781 631.945312 -46.527344 C 623.203125 -42.851562 613.625 -40.820312 605.988281 -35.144531 C 591.394531 -24.304688 588.46875 -3.023438 594.171875 13.523438 C 599.871094 30.0625 612.234375 43.101562 623.847656 56.050781 C 635.460938 69 646.992188 83.097656 650.414062 100.335938 C 657.363281 135.320312 629.28125 169.71875 628.027344 205.707031 C 627.070312 233.042969 642.078125 258.308594 662.226562 276.035156 C 682.375 293.769531 707.351562 305.15625 731.957031 316.308594 C 768.410156 332.832031 805.164062 349.457031 844.519531 358.261719 C 881.113281 366.445312 920.503906 367.539062 956.679688 354.765625 C 992.859375 341.996094 1025.289062 313.910156 1037.230469 277.699219 C 1047.023438 247.992188 1044.449219 211.976562 1067.875 190.675781 C 1081.640625 178.160156 1101.910156 173.769531 1113.664062 159.378906 C 1140.503906 126.507812 1108.09375 79.207031 1083.839844 58.089844 C 1054.820312 32.820312 1017.074219 23.332031 978.601562 21.363281 C 953.71875 20.085938 926.003906 22.476562 906.421875 5.292969 C 877.246094 -20.316406 873.90625 -69.136719 860.039062 -103.542969 C 845.097656 -140.617188 812.117188 -182.265625 765.640625 -173.324219 " fill-opacity="1" fill-rule="nonzero"/></g></g></g><g clip-path="url(#67c84ee08e)"><g clip-path="url(#e12125be17)"><g clip-path="url(#c4a4d5d25b)"><path fill="#00bf63" d="M -45.003906 1009.980469 C -73.949219 1015.546875 -94.609375 1041.574219 -110.9375 1066.390625 C -127.273438 1091.210938 -144.191406 1118.503906 -171.558594 1130.003906 C -179.832031 1133.480469 -188.894531 1135.40625 -196.128906 1140.777344 C -209.941406 1151.039062 -212.710938 1171.183594 -207.3125 1186.84375 C -201.917969 1202.5 -190.214844 1214.84375 -179.222656 1227.101562 C -168.230469 1239.359375 -157.3125 1252.703125 -154.074219 1269.019531 C -147.496094 1302.132812 -174.078125 1334.695312 -175.265625 1368.761719 C -176.167969 1394.636719 -161.964844 1418.554688 -142.890625 1435.335938 C -123.820312 1452.121094 -100.179688 1462.898438 -76.886719 1473.457031 C -42.382812 1489.097656 -7.59375 1504.835938 29.660156 1513.164062 C 64.300781 1520.914062 101.585938 1521.949219 135.832031 1509.859375 C 170.078125 1497.769531 200.777344 1471.183594 212.078125 1436.90625 C 221.351562 1408.785156 218.914062 1374.695312 241.085938 1354.535156 C 254.117188 1342.6875 273.304688 1338.53125 284.429688 1324.910156 C 309.835938 1293.796875 279.15625 1249.023438 256.195312 1229.03125 C 228.726562 1205.109375 193 1196.128906 156.582031 1194.265625 C 133.027344 1193.058594 106.792969 1195.320312 88.257812 1179.054688 C 60.640625 1154.816406 57.480469 1108.601562 44.351562 1076.035156 C 30.207031 1040.9375 -1.011719 1001.515625 -45.003906 1009.980469 " fill-opacity="1" fill-rule="nonzero"/></g></g></g><g clip-path="url(#0f9ab4cb08)"><g clip-path="url(#b23810ce69)"><g clip-path="url(#fae29071ce)"><path fill="#00bf63" d="M 1142.277344 871.566406 C 1133.578125 839.492188 1102.578125 818.46875 1073.300781 802.203125 C 1044.019531 785.929688 1011.910156 769.214844 996.675781 739.421875 C 992.070312 730.414062 989.140625 720.386719 982.488281 712.707031 C 969.792969 698.046875 946.910156 696.632812 929.761719 704.019531 C 912.613281 711.40625 899.726562 725.601562 886.875 738.992188 C 874.019531 752.386719 859.945312 765.78125 841.875 770.800781 C 805.199219 780.988281 766.355469 753.851562 727.957031 755.390625 C 698.792969 756.558594 673.105469 774.542969 655.847656 797.398438 C 638.585938 820.253906 628.464844 847.742188 618.5625 874.816406 C 603.890625 914.921875 589.132812 955.359375 582.90625 997.941406 C 577.121094 1037.535156 579.101562 1079.539062 595.582031 1117.015625 C 612.058594 1154.496094 644.535156 1186.765625 684.019531 1196.578125 C 716.414062 1204.628906 754.535156 1199.011719 779.070312 1222.238281 C 793.488281 1235.886719 799.773438 1257.105469 816.027344 1268.464844 C 853.148438 1294.402344 900.894531 1256.136719 921.429688 1228.640625 C 946.003906 1195.742188 953.085938 1154.820312 952.109375 1113.726562 C 951.480469 1087.140625 946.726562 1057.84375 963.449219 1035.636719 C 988.367188 1002.542969 1040.054688 995.09375 1075.558594 977.585938 C 1113.816406 958.726562 1155.5 920.308594 1142.277344 871.566406 " fill-opacity="1" fill-rule="nonzero"/></g></g></g></svg>